<svg xmlns="http://www.w3.org/2000/svg" viewBox="0 0 48 48" width="48" height="48">
  <defs>
    <linearGradient id="bg" x1="0" y1="0" x2="48" y2="48" gradientUnits="userSpaceOnUse">
      <stop stop-color="#5A3FF2"/>
      <stop offset="1" stop-color="#2563EB"/>
    </linearGradient>
  </defs>
  <rect width="48" height="48" rx="11" fill="url(#bg)"/>
  <g transform="translate(9.5 9.5) scale(0.6)" fill="none" stroke="#fff" stroke-width="3.4">
    <path d="M13 5h16l10 10v24a4 4 0 0 1-4 4H13a4 4 0 0 1-4-4V9a4 4 0 0 1 4-4Z" stroke-linejoin="round"/>
    <path d="M29 5v10h10" stroke-linecap="round" stroke-linejoin="round"/>
    <path d="M30 19.5a8.5 8.5 0 1 0 0 13" stroke-linecap="round"/>
    <path d="M19.6 26.2l3.7 3.7L31 21" stroke-linecap="round" stroke-linejoin="round"/>
  </g>
</svg>
